# xmcd
#
# Track frame offsets:
#	150
#	25280
#	55502
#	79656
#	98359
#	117432
#	136494
#	155488
#	176002
#	191844
#
# Disc length: 2758 seconds
#
# Revision: 0
# Processed by: cddbd v1.5.2PL0 Copyright (c) Steve Scherf et al.
# Submitted via: EasyCDDAExtractor 11.5.0.1
#
DISCID=7b0ac40a
DTITLE=Remus Tamasan - Ai fost chemat
DYEAR=1900
DGENRE=Folk-Rock
TTITLE0=Ai fost cemat
TTITLE1=Asculta glasul meu
TTITLE2=Isus plangea
TTITLE3=Esti lovit
TTITLE4=Bunatatea Ta
TTITLE5=In haine albe
TTITLE6=Tu esti tare
TTITLE7=Psalmul 23
TTITLE8=Evanghelia
TTITLE9=Te astept
EXTD=
EXTT0=
EXTT1=
EXTT2=
EXTT3=
EXTT4=
EXTT5=
EXTT6=
EXTT7=
EXTT8=
EXTT9=
PLAYORDER=
